<?xml version="1.0" encoding="UTF-8" standalone="no"?>
<!DOCTYPE svg PUBLIC "-//W3C//DTD SVG 1.1//EN" "http://www.w3.org/Graphics/SVG/1.1/DTD/svg11.dtd">
<svg width="100%" height="100%" viewBox="0 0 91 56" version="1.1" xmlns="http://www.w3.org/2000/svg" xmlns:xlink="http://www.w3.org/1999/xlink" xml:space="preserve" xmlns:serif="http://www.serif.com/" style="fill-rule:evenodd;clip-rule:evenodd;stroke-linejoin:round;stroke-miterlimit:2;">
    <g id="Artboard1" transform="matrix(0.962135,0,0,0.899889,-3.06675,-7.81178)">
        <rect x="3.187" y="8.681" width="94.301" height="61.219" style="fill:none;"/>
        <g transform="matrix(1.03936,0,0,1.11125,-3.64186,-7.01965)">
            <g>
                <path d="M80.5,27.7C85.8,29.7 90.8,32.3 95.4,35.3L92,42.6L96.1,55.7C93,53.7 89.9,51.9 87.1,50.5L87.1,57.7C85,56.5 82.8,55.3 80.4,54.3L80.4,57.3L83.6,62.1L83.6,68.7L62.2,68.7L62.2,49.1C61.4,49 60.6,48.9 59.9,48.8L51.5,62L43.2,48.8C42.4,48.9 41.6,49 40.9,49.1L40.9,68.7L19.4,68.7L19.4,62.1L22.6,57.3L22.6,54.3C20.3,55.3 18,56.5 15.9,57.7L15.9,50.5C13.1,51.9 10,53.7 6.9,55.7L11,42.6L7.6,35.3C12.2,32.3 17.2,29.7 22.5,27.7L22.5,26.1L19.3,21L19.3,14.6L39.4,14.6L47.2,26.7C48.6,26.6 50,26.6 51.4,26.6C52.8,26.6 54.2,26.6 55.6,26.7L63.4,14.6L83.5,14.6L83.5,21L80.3,26.1L80.3,27.7L80.5,27.7Z" style="fill:rgb(93,23,37);fill-rule:nonzero;"/>
                <path d="M22.5,30C18.1,31.7 14.1,33.7 10.3,36.1L13.2,42.5L10.6,50.9C12.3,49.9 14.1,49 15.8,48.1L15.8,35.6C17.8,34.6 20.8,33.1 22.5,32.4L22.5,30Z" style="fill:white;fill-rule:nonzero;"/>
                <path d="M51.5,46.1C62.7,46.1 74.6,49 84.8,54.1L84.8,37C74.6,31.7 62.7,28.8 51.5,28.8C40.3,28.8 28.4,31.7 18.2,37L18.2,54C28.3,48.9 40.3,46.1 51.5,46.1Z" style="fill:white;fill-rule:nonzero;"/>
                <path d="M80.5,30C84.9,31.7 88.9,33.7 92.7,36.1L89.8,42.5L92.4,50.9C90.7,49.9 88.9,49 87.2,48.1L87.2,35.6C85.2,34.6 82.2,33.1 80.5,32.4L80.5,30Z" style="fill:white;fill-rule:nonzero;"/>
                <g>
                    <path d="M45.2,35C44.5,35.1 43.8,35.1 43.1,35.2L43.1,33.8L40.8,34L40.8,42.1L41.8,42L41.8,44.1C40.2,44.3 38.6,44.6 37.1,44.9L37.1,42.8L38.1,42.6L38.1,34.5L35.9,34.9L35.9,36.3C35.2,36.4 34.5,36.6 33.9,36.8L33.9,33.3C37.6,32.4 41.4,31.7 45.2,31.4L45.2,35ZM32.2,36.8C31.3,37 30.5,37.3 29.6,37.6L29.6,36.7L25.9,38L25.9,40.8C25.9,40.8 29.3,39.6 30.7,39.1L32.2,40.1L32.2,44.1L30.1,46.8C28.5,47.3 26.9,47.9 25.3,48.5C24.7,48.1 24,47.7 23.4,47.3L23.4,45.8C24.2,45.4 25.1,45.1 25.9,44.8L25.9,46.3L26.3,46.2C27.3,45.8 29.7,45 29.7,45L29.7,41.4C29.7,41.4 26.2,42.6 24.8,43.1L23.4,42.2L23.4,38.9L25.4,36.1C27,35.5 28.6,34.9 30.2,34.4C30.9,34.8 31.5,35.3 32.2,35.7L32.2,36.8ZM67.3,36.6C66.6,36.4 65.9,36.3 65.3,36.2L65.3,34.8L63,34.3L63,42.4L64,42.6L64,44.7C62.4,44.4 60.8,44.2 59.2,44L59.2,41.9L60.2,42L60.2,33.9L58,33.6L58,35C57.3,34.9 56.6,34.9 55.9,34.8L55.9,31.2C59.7,31.5 63.5,32 67.2,32.9L67.2,36.6L67.3,36.6ZM72.8,36.6L72.8,39.6C72.8,39.6 75.2,40.4 76.3,40.8L76.3,42.7C75.3,42.3 72.8,41.5 72.8,41.5L72.8,44.7L76.5,46L76.5,45.1C77.3,45.4 78.2,45.8 79,46.1L79,49.1C75.8,47.8 72.5,46.6 69.1,45.8L69.1,43.7L70.2,44L70.2,35.9L69.1,35.6L69.1,33.5C72.4,34.4 75.8,35.5 79,36.9L79,39.7C78.2,39.3 77.3,39 76.5,38.7L76.5,37.9L72.8,36.6ZM50.5,33.8L49.1,37.7L51.8,37.7L50.5,33.8ZM56.7,43.7C55.2,43.6 53.7,43.5 52.2,43.5L52.2,41.4L53.2,41.4L52.5,39.5L48.4,39.5L47.7,41.4L48.7,41.4L48.7,43.5C47.3,43.5 45.8,43.6 44.4,43.8L44.4,41.7L45.4,41.6L49.1,31.2L52,31.2L55.6,41.6C55.6,41.6 56.4,41.7 56.7,41.7L56.7,43.7Z" style="fill:rgb(93,23,37);fill-rule:nonzero;"/>
                </g>
            </g>
        </g>
    </g>
</svg>
